<svg width="355" height="352" viewBox="0 0 355 352" fill="none" xmlns="http://www.w3.org/2000/svg">
<g clip-path="url(#clip0_2006_1932)">
<path d="M200.122 9.81159C200.195 8.46512 200.582 7.32184 201.29 5.84655C197.869 5.82566 195.621 5.63499 193.119 4.96506C191.93 6.29807 191.692 7.26312 191.57 8.65352C193.378 9.2396 196.52 9.68786 200.122 9.81159Z" fill="url(#paint0_linear_2006_1932)"/>
<path d="M110.158 164.529C111.404 166.901 113.419 167.963 117.003 168.854C119.02 163.375 120.81 160.398 124.612 156.365C122.023 155.597 120.536 154.237 118.147 151.035C114.337 155.208 112.265 159.101 110.18 164.553L110.158 164.529Z" fill="#B61E10"/>
<path d="M256.141 110.281C260.517 106.395 262.473 103.799 263.228 97.5537C255.289 91.9119 250.958 88.0239 244.443 81.0151C242.878 84.1439 241.08 85.9797 239.314 87.2119C247.021 95.0064 250.763 100.749 256.144 110.234L256.141 110.281Z" fill="#E09E34"/>
<path d="M159.059 97.6365C160.935 99.1341 162.523 99.4756 165.07 98.8675C166.17 96.5984 166.638 94.8075 166.274 92.9254C163.79 91.9305 162.42 90.5531 160.321 88.0189C160.378 91.7239 160.324 94.0259 159.059 97.6365Z" fill="#B61E10"/>
<path d="M193.478 173.313C190.681 171.627 188.433 171.436 185.084 172.676C184 175.947 183.655 178.466 184.451 180.977C188.033 181.915 190.111 183.54 193.436 186.652C192.706 181.607 192.409 178.471 193.478 173.313Z" fill="#B61E10"/>
<path d="M26.5723 203.574C28.5638 203.774 30.7046 203.796 32.6975 202.669C33.2467 201.116 33.6999 200.046 34.6839 198.632C33.2296 198.833 32.3749 198.275 31.0424 196.643C30.1698 199.018 28.6451 200.962 26.5503 203.55L26.5723 203.574Z" fill="#1645A9"/>
<path d="M57.2147 124.665C57.0061 129.846 57.3876 134.01 59.4167 137.845C62.845 138.168 65.0596 137.682 67.3656 136.363C65.2961 131.548 64.8058 128.542 65.293 123.376C62.2166 125.167 60.1363 125.753 57.1902 124.687L57.2147 124.665Z" fill="#1645A9"/>
<path d="M221.811 149.063C222.969 145.284 223.265 142.808 223.21 139.499C220.568 139.707 218.952 140.318 217.575 141.245C218.074 143.228 217.664 144.789 216.816 147.141C219.098 147.124 220.256 147.676 221.787 149.085L221.811 149.063Z" fill="#B61E10"/>
<path d="M145.635 310.179C147.185 309.494 147.99 308.815 149.055 307.196C147.177 306.187 146.273 305.23 145.576 303.913C144.08 304.461 143.138 305.085 141.844 306.203C143.414 307.312 144.359 308.364 145.613 310.154L145.635 310.179Z" fill="#1645A9"/>
<path d="M166.206 247.561C166.904 250.16 166.984 252.562 166.553 255.822C172.98 253.629 177.417 252.517 182.584 252.12C183.949 248.817 183.775 246.852 183.128 244.163C179.352 244.24 173.117 245.465 166.206 247.561Z" fill="url(#paint1_linear_2006_1932)"/>
<path d="M301.13 167.318C305.509 168.159 309.535 170.773 315.814 179.585C319.134 176.295 321.13 172.514 322.228 166.799C316.656 160.888 312.861 157.844 305.518 154.982C305.469 159.798 304.205 162.524 301.152 167.343L301.13 167.318Z" fill="#E09E34"/>
<path d="M185.003 296.346C186.467 303.339 186.731 307.521 185.787 314.688C189.298 315.202 192.358 315.018 195.302 313.523C196.395 308.785 196.441 302.735 195.734 294.664C191.346 297.455 188.652 298.195 185.025 296.37L185.003 296.346Z" fill="url(#paint2_linear_2006_1932)"/>
<path d="M153.377 117.586C151.94 114.017 150.676 111.97 148.596 109.507C146.732 111.269 145.91 112.715 145.431 114.249C147.043 115.453 147.643 116.859 148.427 119.16C150.132 117.761 151.359 117.455 153.377 117.586Z" fill="url(#paint3_linear_2006_1932)"/>
<path d="M208.81 246.289C208.001 246.175 207.342 245.884 206.644 245.008C205.082 247.206 204.345 248.796 203.423 251.214C204.551 252.323 205.418 252.649 206.061 252.823C206.44 250.096 207.293 248.535 208.81 246.289Z" fill="url(#paint4_linear_2006_1932)"/>
<path d="M260.606 258.548C257.377 271.831 226.304 276.005 219.288 289.155L220.414 281.207C226.911 269.053 253.903 264.567 260.506 253.467C260.991 252.678 261.361 251.86 261.594 250.988L260.855 256.512L260.584 258.523L260.606 258.548Z" fill="url(#paint5_linear_2006_1932)"/>
<path d="M252.487 231.989C246.422 233.945 238.88 234.354 231.807 232.531C228.34 231.623 226.885 230.543 226.894 229.519C226.882 226.259 241.748 223.869 252.487 231.989Z" fill="url(#paint6_linear_2006_1932)"/>
<path d="M253.398 205.939C247.886 207.133 241.921 207.231 236.971 205.755C234.68 205.073 233.74 204.37 233.816 203.816C234.075 202.037 244.466 201.454 253.398 205.939Z" fill="url(#paint7_linear_2006_1932)"/>
<path d="M264.465 220.968L264.418 221.408C264.314 222.031 264.118 222.649 263.9 223.243C263.657 223.859 263.346 224.447 262.967 225.009C262.611 223.826 262.002 222.606 261.136 221.395C258.825 218.034 255.648 215.629 252.295 213.912C255.216 213.277 257.991 212.332 260.428 211.159C261.066 211.869 261.7 212.625 262.261 213.446C263.449 215.163 264.13 216.806 264.416 218.405C264.554 219.297 264.6 220.184 264.487 220.993L264.465 220.968Z" fill="url(#paint8_linear_2006_1932)"/>
<path d="M270.441 193.817C270.273 195.205 269.643 196.521 268.691 197.774C267.838 195.889 266.149 193.959 263.458 192.045L264.584 184.096C269.226 187.395 270.862 190.743 270.441 193.817Z" fill="url(#paint9_linear_2006_1932)"/>
<path d="M261.616 251.012C261.361 251.86 261.013 252.703 260.528 253.491C260.433 253.091 260.314 252.712 260.195 252.333C258.239 246.71 255.054 242.72 251.384 239.962C253.682 239.224 255.76 238.242 257.521 237.102C259.041 239.14 260.331 241.56 261.32 244.384C261.783 245.736 262.019 246.983 262.025 248.17C262.041 249.172 261.92 250.121 261.663 251.015L261.616 251.012Z" fill="url(#paint10_linear_2006_1932)"/>
<path d="M270.416 193.839L269.29 201.787C268.766 205.484 265.26 208.765 260.406 211.135C257.969 212.308 255.194 213.253 252.273 213.887C246.761 215.081 240.795 215.18 235.846 213.703C233.554 213.021 232.614 212.319 232.69 211.764L233.816 203.816C233.74 204.37 234.68 205.073 236.971 205.755C241.921 207.231 247.886 207.133 253.398 205.939C259.925 204.497 265.835 201.532 268.667 197.796C269.619 196.543 270.224 195.249 270.416 193.839Z" fill="url(#paint11_linear_2006_1932)"/>
<path d="M264.418 221.408L263.287 229.45C262.731 232.423 260.612 235.033 257.499 237.078C255.738 238.217 253.66 239.2 251.362 239.938C245.297 241.893 237.754 242.303 230.682 240.479C227.215 239.571 225.759 238.492 225.768 237.468L226.894 229.519C226.885 230.543 228.34 231.623 231.807 232.531C238.905 234.332 246.422 233.945 252.487 231.989C257.154 230.494 260.965 228.044 262.945 224.984C263.324 224.423 263.635 223.834 263.878 223.219C264.143 222.627 264.292 222.007 264.396 221.384L264.418 221.408Z" fill="url(#paint12_linear_2006_1932)"/>
<path d="M140.408 269.666L146.414 281.816C148.787 286.623 117.769 297.995 122.535 310.683L117.327 300.159C112.099 291.73 123.75 283.741 132.384 277.756C137.366 274.299 141.311 271.507 140.43 269.691L140.408 269.666Z" fill="url(#paint13_linear_2006_1932)"/>
<path d="M140.408 269.666C141.311 271.507 137.344 274.274 132.362 277.732C121.276 276.065 107.287 274.266 104.343 268.822C104.238 268.607 104.156 268.416 104.073 268.226C103.298 266.182 103.936 263.841 105.327 261.355C117.048 265.501 138.499 265.769 140.408 269.666Z" fill="url(#paint14_linear_2006_1932)"/>
<path d="M113.664 222.317L119.67 234.467C123.681 242.575 110.087 252.927 105.324 261.402C103.933 263.888 103.273 266.204 104.07 268.272L98.0865 256.147C95.2596 248.964 110.147 238.379 113.671 229.116C114.566 226.766 114.713 224.469 113.686 222.341L113.664 222.317Z" fill="url(#paint15_linear_2006_1932)"/>
<path d="M113.664 222.317C114.715 224.422 114.568 226.719 113.649 229.091C104.683 224.814 89.309 224.524 79.4006 210.045C78.3222 208.451 77.3831 206.863 76.5857 205.237C75.5787 203.181 74.8038 201.137 74.2611 199.106C87.204 216.471 108.453 211.839 113.642 222.292L113.664 222.317Z" fill="url(#paint16_linear_2006_1932)"/>
<path d="M79.1761 145.775L85.1818 157.925C85.1818 157.925 68.3831 177.65 74.3296 199.133C74.8723 201.164 75.6472 203.208 76.6542 205.264L70.6485 193.114C59.0689 169.443 79.198 145.799 79.198 145.799L79.1761 145.775Z" fill="url(#paint17_linear_2006_1932)"/>
<path d="M166.049 146.066L168.322 160.949L168.495 162.076C169.053 167.717 165.108 172.674 160.032 179.176L157.63 163.657C160.503 160.017 163.026 156.823 164.542 153.738C165.821 151.176 166.442 148.718 166.049 146.066Z" fill="url(#paint18_linear_2006_1932)"/>
<path d="M166.049 146.066C166.42 148.694 165.821 151.176 164.542 153.738C162.707 151.498 160.229 149.083 156.906 146.366C148.116 139.235 137.247 136.137 135.343 125.208L135.241 124.504C134.904 122.112 135.005 119.37 135.62 116.167C139.809 122.259 147.792 125.342 154.529 130.826C162.068 136.959 165.421 141.725 166.051 146.02L166.049 146.066Z" fill="url(#paint19_linear_2006_1932)"/>
<path d="M155.602 43.6924L157.878 58.529L158.085 59.8904C158.937 68.7136 151.211 80.7776 144.288 93.9324C139.388 103.238 136.672 110.449 135.62 116.167C135.027 119.394 134.926 122.136 135.241 124.504L132.844 108.893C131.989 102.282 134.262 92.9047 141.91 78.3919C146.762 69.1302 152.05 60.4043 154.451 52.9899C155.542 49.5796 156.061 46.4178 155.651 43.6485L155.602 43.6924Z" fill="url(#paint20_linear_2006_1932)"/>
</g>
<defs>
<linearGradient id="paint0_linear_2006_1932" x1="236.666" y1="53.5516" x2="235.661" y2="60.1014" gradientUnits="userSpaceOnUse">
<stop stop-color="#005200"/>
<stop offset="0.19" stop-color="#00880B"/>
<stop offset="0.31" stop-color="#00A912"/>
<stop offset="0.33" stop-color="#11AC12"/>
<stop offset="0.37" stop-color="#39B512"/>
<stop offset="0.41" stop-color="#59BC12"/>
<stop offset="0.44" stop-color="#70C112"/>
<stop offset="0.48" stop-color="#7EC312"/>
<stop offset="0.51" stop-color="#83C512"/>
<stop offset="0.55" stop-color="#7EC412"/>
<stop offset="0.59" stop-color="#72C112"/>
<stop offset="0.63" stop-color="#5DBD12"/>
<stop offset="0.67" stop-color="#40B612"/>
<stop offset="0.72" stop-color="#1BAE12"/>
<stop offset="0.74" stop-color="#00A912"/>
<stop offset="0.78" stop-color="#009D10"/>
<stop offset="0.86" stop-color="#007F0B"/>
<stop offset="0.95" stop-color="#004F04"/>
<stop offset="1" stop-color="#003400"/>
</linearGradient>
<linearGradient id="paint1_linear_2006_1932" x1="81.4988" y1="158.229" x2="79.0682" y2="145.245" gradientUnits="userSpaceOnUse">
<stop stop-color="#0038AB"/>
<stop offset="0.11" stop-color="#0061C9"/>
<stop offset="0.27" stop-color="#0097EF"/>
<stop offset="0.35" stop-color="#00ACFF"/>
<stop offset="0.4" stop-color="#00BFFF"/>
<stop offset="0.47" stop-color="#00D2FF"/>
<stop offset="0.52" stop-color="#00D9FF"/>
<stop offset="0.66" stop-color="#00B7FF"/>
<stop offset="0.71" stop-color="#00ACFF"/>
<stop offset="0.76" stop-color="#00A1F7"/>
<stop offset="0.83" stop-color="#0085E3"/>
<stop offset="0.93" stop-color="#0059C3"/>
<stop offset="1" stop-color="#0038AB"/>
</linearGradient>
<linearGradient id="paint2_linear_2006_1932" x1="213.876" y1="351.634" x2="227.373" y2="350.825" gradientUnits="userSpaceOnUse">
<stop stop-color="#0038AB"/>
<stop offset="0.11" stop-color="#0061C9"/>
<stop offset="0.27" stop-color="#0097EF"/>
<stop offset="0.35" stop-color="#00ACFF"/>
<stop offset="0.4" stop-color="#00BFFF"/>
<stop offset="0.47" stop-color="#00D2FF"/>
<stop offset="0.52" stop-color="#00D9FF"/>
<stop offset="0.66" stop-color="#00B7FF"/>
<stop offset="0.71" stop-color="#00ACFF"/>
<stop offset="0.76" stop-color="#00A1F7"/>
<stop offset="0.83" stop-color="#0085E3"/>
<stop offset="0.93" stop-color="#0059C3"/>
<stop offset="1" stop-color="#0038AB"/>
</linearGradient>
<linearGradient id="paint3_linear_2006_1932" x1="153.464" y1="115.09" x2="147.849" y2="118.964" gradientUnits="userSpaceOnUse">
<stop stop-color="#AB3C00"/>
<stop offset="0.34" stop-color="#FFC700"/>
<stop offset="0.37" stop-color="#FFCD17"/>
<stop offset="0.41" stop-color="#FFD432"/>
<stop offset="0.44" stop-color="#FFD946"/>
<stop offset="0.48" stop-color="#FFDC52"/>
<stop offset="0.52" stop-color="#FFDE56"/>
<stop offset="0.55" stop-color="#FFDC51"/>
<stop offset="0.59" stop-color="#FFD842"/>
<stop offset="0.62" stop-color="#FFD22B"/>
<stop offset="0.66" stop-color="#FFC90A"/>
<stop offset="0.67" stop-color="#FFC700"/>
<stop offset="1" stop-color="#AB3C00"/>
</linearGradient>
<linearGradient id="paint4_linear_2006_1932" x1="60.5442" y1="271.287" x2="56.8156" y2="269.535" gradientUnits="userSpaceOnUse">
<stop stop-color="#AB3C00"/>
<stop offset="0.34" stop-color="#FFC700"/>
<stop offset="0.37" stop-color="#FFCD17"/>
<stop offset="0.41" stop-color="#FFD432"/>
<stop offset="0.44" stop-color="#FFD946"/>
<stop offset="0.48" stop-color="#FFDC52"/>
<stop offset="0.52" stop-color="#FFDE56"/>
<stop offset="0.55" stop-color="#FFDC51"/>
<stop offset="0.59" stop-color="#FFD842"/>
<stop offset="0.62" stop-color="#FFD22B"/>
<stop offset="0.66" stop-color="#FFC90A"/>
<stop offset="0.67" stop-color="#FFC700"/>
<stop offset="1" stop-color="#AB3C00"/>
</linearGradient>
<linearGradient id="paint5_linear_2006_1932" x1="222.665" y1="267.782" x2="258.968" y2="272.882" gradientUnits="userSpaceOnUse">
<stop stop-color="#003400"/>
<stop offset="0.08" stop-color="#005104"/>
<stop offset="0.19" stop-color="#00770A"/>
<stop offset="0.3" stop-color="#00920E"/>
<stop offset="0.4" stop-color="#00A311"/>
<stop offset="0.47" stop-color="#00A912"/>
<stop offset="0.6" stop-color="#00A912"/>
<stop offset="0.67" stop-color="#009D10"/>
<stop offset="0.78" stop-color="#007F0B"/>
<stop offset="0.92" stop-color="#004F04"/>
<stop offset="1" stop-color="#003400"/>
</linearGradient>
<linearGradient id="paint6_linear_2006_1932" x1="216.919" y1="224.311" x2="302.679" y2="248.643" gradientUnits="userSpaceOnUse">
<stop stop-color="#003400"/>
<stop offset="0.08" stop-color="#005104"/>
<stop offset="0.19" stop-color="#00770A"/>
<stop offset="0.3" stop-color="#00920E"/>
<stop offset="0.4" stop-color="#00A311"/>
<stop offset="0.47" stop-color="#00A912"/>
<stop offset="0.6" stop-color="#00A912"/>
<stop offset="0.67" stop-color="#009D10"/>
<stop offset="0.78" stop-color="#007F0B"/>
<stop offset="0.92" stop-color="#004F04"/>
<stop offset="1" stop-color="#003400"/>
</linearGradient>
<linearGradient id="paint7_linear_2006_1932" x1="230.146" y1="201.999" x2="291.514" y2="216.563" gradientUnits="userSpaceOnUse">
<stop stop-color="#003400"/>
<stop offset="0.08" stop-color="#005104"/>
<stop offset="0.19" stop-color="#00770A"/>
<stop offset="0.3" stop-color="#00920E"/>
<stop offset="0.4" stop-color="#00A311"/>
<stop offset="0.47" stop-color="#00A912"/>
<stop offset="0.6" stop-color="#00A912"/>
<stop offset="0.67" stop-color="#009D10"/>
<stop offset="0.78" stop-color="#007F0B"/>
<stop offset="0.92" stop-color="#004F04"/>
<stop offset="1" stop-color="#003400"/>
</linearGradient>
<linearGradient id="paint8_linear_2006_1932" x1="228.189" y1="210.257" x2="289.558" y2="224.82" gradientUnits="userSpaceOnUse">
<stop stop-color="#003400"/>
<stop offset="0.08" stop-color="#005104"/>
<stop offset="0.19" stop-color="#00770A"/>
<stop offset="0.3" stop-color="#00920E"/>
<stop offset="0.4" stop-color="#00A311"/>
<stop offset="0.47" stop-color="#00A912"/>
<stop offset="0.6" stop-color="#00A912"/>
<stop offset="0.67" stop-color="#009D10"/>
<stop offset="0.78" stop-color="#007F0B"/>
<stop offset="0.92" stop-color="#004F04"/>
<stop offset="1" stop-color="#003400"/>
</linearGradient>
<linearGradient id="paint9_linear_2006_1932" x1="244.297" y1="184.697" x2="282.408" y2="195.595" gradientUnits="userSpaceOnUse">
<stop stop-color="#003400"/>
<stop offset="0.08" stop-color="#005104"/>
<stop offset="0.19" stop-color="#00770A"/>
<stop offset="0.3" stop-color="#00920E"/>
<stop offset="0.4" stop-color="#00A311"/>
<stop offset="0.47" stop-color="#00A912"/>
<stop offset="0.6" stop-color="#00A912"/>
<stop offset="0.67" stop-color="#009D10"/>
<stop offset="0.78" stop-color="#007F0B"/>
<stop offset="0.92" stop-color="#004F04"/>
<stop offset="1" stop-color="#003400"/>
</linearGradient>
<linearGradient id="paint10_linear_2006_1932" x1="214.53" y1="232.807" x2="300.258" y2="257.134" gradientUnits="userSpaceOnUse">
<stop stop-color="#003400"/>
<stop offset="0.08" stop-color="#005104"/>
<stop offset="0.19" stop-color="#00770A"/>
<stop offset="0.3" stop-color="#00920E"/>
<stop offset="0.4" stop-color="#00A311"/>
<stop offset="0.47" stop-color="#00A912"/>
<stop offset="0.6" stop-color="#00A912"/>
<stop offset="0.67" stop-color="#009D10"/>
<stop offset="0.78" stop-color="#007F0B"/>
<stop offset="0.92" stop-color="#004F04"/>
<stop offset="1" stop-color="#003400"/>
</linearGradient>
<linearGradient id="paint11_linear_2006_1932" x1="234.534" y1="201.487" x2="269.046" y2="206.335" gradientUnits="userSpaceOnUse">
<stop stop-color="#003400"/>
<stop offset="0.08" stop-color="#005104"/>
<stop offset="0.19" stop-color="#00770A"/>
<stop offset="0.3" stop-color="#00920E"/>
<stop offset="0.4" stop-color="#00A311"/>
<stop offset="0.47" stop-color="#00A912"/>
<stop offset="0.6" stop-color="#00A912"/>
<stop offset="0.67" stop-color="#009D10"/>
<stop offset="0.78" stop-color="#007F0B"/>
<stop offset="0.92" stop-color="#004F04"/>
<stop offset="1" stop-color="#003400"/>
</linearGradient>
<linearGradient id="paint12_linear_2006_1932" x1="227.399" y1="228.407" x2="263.116" y2="233.424" gradientUnits="userSpaceOnUse">
<stop stop-color="#003400"/>
<stop offset="0.08" stop-color="#005104"/>
<stop offset="0.19" stop-color="#00770A"/>
<stop offset="0.3" stop-color="#00920E"/>
<stop offset="0.4" stop-color="#00A311"/>
<stop offset="0.47" stop-color="#00A912"/>
<stop offset="0.6" stop-color="#00A912"/>
<stop offset="0.67" stop-color="#009D10"/>
<stop offset="0.78" stop-color="#007F0B"/>
<stop offset="0.92" stop-color="#004F04"/>
<stop offset="1" stop-color="#003400"/>
</linearGradient>
<linearGradient id="paint13_linear_2006_1932" x1="116.185" y1="297.747" x2="146.87" y2="282.586" gradientUnits="userSpaceOnUse">
<stop stop-color="#0038AB"/>
<stop offset="0.16" stop-color="#0061C9"/>
<stop offset="0.38" stop-color="#0097EF"/>
<stop offset="0.48" stop-color="#00ACFF"/>
<stop offset="0.57" stop-color="#00ACFF"/>
<stop offset="0.64" stop-color="#00A1F7"/>
<stop offset="0.75" stop-color="#0085E3"/>
<stop offset="0.9" stop-color="#0059C3"/>
<stop offset="1" stop-color="#0038AB"/>
</linearGradient>
<linearGradient id="paint14_linear_2006_1932" x1="89.4646" y1="276.697" x2="172.298" y2="256.636" gradientUnits="userSpaceOnUse">
<stop stop-color="#0038AB"/>
<stop offset="0.16" stop-color="#0061C9"/>
<stop offset="0.38" stop-color="#0097EF"/>
<stop offset="0.48" stop-color="#00ACFF"/>
<stop offset="0.57" stop-color="#00ACFF"/>
<stop offset="0.64" stop-color="#00A1F7"/>
<stop offset="0.75" stop-color="#0085E3"/>
<stop offset="0.9" stop-color="#0059C3"/>
<stop offset="1" stop-color="#0038AB"/>
</linearGradient>
<linearGradient id="paint15_linear_2006_1932" x1="95.9498" y1="251.673" x2="121.919" y2="238.841" gradientUnits="userSpaceOnUse">
<stop stop-color="#0038AB"/>
<stop offset="0.16" stop-color="#0061C9"/>
<stop offset="0.38" stop-color="#0097EF"/>
<stop offset="0.48" stop-color="#00ACFF"/>
<stop offset="0.57" stop-color="#00ACFF"/>
<stop offset="0.64" stop-color="#00A1F7"/>
<stop offset="0.75" stop-color="#0085E3"/>
<stop offset="0.9" stop-color="#0059C3"/>
<stop offset="1" stop-color="#0038AB"/>
</linearGradient>
<linearGradient id="paint16_linear_2006_1932" x1="69.1074" y1="222.285" x2="144.715" y2="197.396" gradientUnits="userSpaceOnUse">
<stop stop-color="#0038AB"/>
<stop offset="0.16" stop-color="#0061C9"/>
<stop offset="0.38" stop-color="#0097EF"/>
<stop offset="0.48" stop-color="#00ACFF"/>
<stop offset="0.57" stop-color="#00ACFF"/>
<stop offset="0.64" stop-color="#00A1F7"/>
<stop offset="0.75" stop-color="#0085E3"/>
<stop offset="0.9" stop-color="#0059C3"/>
<stop offset="1" stop-color="#0038AB"/>
</linearGradient>
<linearGradient id="paint17_linear_2006_1932" x1="65.1378" y1="181.816" x2="90.8119" y2="169.13" gradientUnits="userSpaceOnUse">
<stop stop-color="#0038AB"/>
<stop offset="0.16" stop-color="#0061C9"/>
<stop offset="0.38" stop-color="#0097EF"/>
<stop offset="0.48" stop-color="#00ACFF"/>
<stop offset="0.57" stop-color="#00ACFF"/>
<stop offset="0.64" stop-color="#00A1F7"/>
<stop offset="0.75" stop-color="#0085E3"/>
<stop offset="0.9" stop-color="#0059C3"/>
<stop offset="1" stop-color="#0038AB"/>
</linearGradient>
<linearGradient id="paint18_linear_2006_1932" x1="157.679" y1="163.622" x2="168.533" y2="161.954" gradientUnits="userSpaceOnUse">
<stop stop-color="#DA0000"/>
<stop offset="0.09" stop-color="#E61014"/>
<stop offset="0.24" stop-color="#F82831"/>
<stop offset="0.33" stop-color="#FF313D"/>
<stop offset="0.36" stop-color="#FD3F49"/>
<stop offset="0.42" stop-color="#FB5C63"/>
<stop offset="0.47" stop-color="#F96D72"/>
<stop offset="0.51" stop-color="#F97478"/>
<stop offset="0.67" stop-color="#FF313D"/>
<stop offset="0.69" stop-color="#F92C37"/>
<stop offset="0.81" stop-color="#DD141A"/>
<stop offset="0.92" stop-color="#CC0509"/>
<stop offset="1" stop-color="#C70003"/>
</linearGradient>
<linearGradient id="paint19_linear_2006_1932" x1="121.647" y1="138.022" x2="212.767" y2="128.78" gradientUnits="userSpaceOnUse">
<stop stop-color="#DA0000"/>
<stop offset="0.09" stop-color="#E61014"/>
<stop offset="0.24" stop-color="#F82831"/>
<stop offset="0.33" stop-color="#FF313D"/>
<stop offset="0.36" stop-color="#FD3F49"/>
<stop offset="0.42" stop-color="#FB5C63"/>
<stop offset="0.47" stop-color="#F96D72"/>
<stop offset="0.51" stop-color="#F97478"/>
<stop offset="0.67" stop-color="#FF313D"/>
<stop offset="0.69" stop-color="#F92C37"/>
<stop offset="0.81" stop-color="#DD141A"/>
<stop offset="0.92" stop-color="#CC0509"/>
<stop offset="1" stop-color="#C70003"/>
</linearGradient>
<linearGradient id="paint20_linear_2006_1932" x1="129.504" y1="86.7526" x2="161.546" y2="81.8301" gradientUnits="userSpaceOnUse">
<stop stop-color="#DA0000"/>
<stop offset="0.09" stop-color="#E61014"/>
<stop offset="0.24" stop-color="#F82831"/>
<stop offset="0.33" stop-color="#FF313D"/>
<stop offset="0.36" stop-color="#FD3F49"/>
<stop offset="0.42" stop-color="#FB5C63"/>
<stop offset="0.47" stop-color="#F96D72"/>
<stop offset="0.51" stop-color="#F97478"/>
<stop offset="0.67" stop-color="#FF313D"/>
<stop offset="0.69" stop-color="#F92C37"/>
<stop offset="0.81" stop-color="#DD141A"/>
<stop offset="0.92" stop-color="#CC0509"/>
<stop offset="1" stop-color="#C70003"/>
</linearGradient>
<clipPath id="clip0_2006_1932">
<rect width="262.27" height="237.513" fill="white" transform="translate(0.901855 175.234) rotate(-41.9238)"/>
</clipPath>
</defs>
</svg>
