<svg width="326" height="142" viewBox="0 0 326 142" fill="none" xmlns="http://www.w3.org/2000/svg">
<path d="M289.883 101.883L293.905 101.817L291.772 95.7857L289.883 101.883Z" fill="black"/>
<path d="M325.548 125.747C325.548 125.747 325.52 125.672 325.51 125.634L307.922 78.9683C307.706 78.32 307.415 77.6905 307.049 77.0798L303.103 69.7422C302.933 69.3945 302.746 69.0563 302.539 68.7369C302.511 68.6899 302.473 68.6429 302.445 68.5959C302.05 67.9947 301.571 67.4309 301.036 66.9142C299.899 65.8056 297.879 64.4902 294.731 64.4902H294.543L281.071 64.7157C277.886 64.7721 275.866 66.1814 274.729 67.3558C273.63 68.4926 272.822 69.7703 272.343 71.1702L269.674 79.081C269.468 78.3576 269.167 77.6623 268.772 77.0235L264.779 69.5824C264.723 69.4603 264.667 69.3664 264.62 69.2818C264.563 69.1691 264.498 69.0563 264.422 68.9436C264.065 68.3517 263.643 67.8255 263.163 67.3558C262.797 67.0082 262.412 66.6981 261.998 66.4257C263.304 63.6165 264.028 60.4691 264.169 57.0304C264.328 53.1126 263.746 49.5612 262.431 46.442C262.327 46.1132 262.186 45.7938 262.017 45.4837L261.848 45.1643C261.698 44.8636 261.547 44.5912 261.397 44.3187L257.414 36.8871C257.348 36.7649 257.282 36.6428 257.207 36.5301C256.004 34.3128 254.417 32.3962 252.472 30.8084C248.732 27.7549 243.847 25.8101 237.909 25.0021L237.956 23.9123C238.022 22.3903 237.665 20.9058 236.923 19.5999L232.648 11.6515C232.582 11.52 232.507 11.3979 232.432 11.2757C232.15 10.806 231.84 10.3832 231.473 9.98858C230.027 8.41958 228.044 7.50824 225.893 7.42368L213.904 6.93513C213.801 6.93513 213.688 6.93513 213.576 6.93513C211.903 6.93513 210.325 7.44247 208.962 8.41958C207.61 7.28276 205.928 6.61569 204.124 6.54993L162.785 4.86818C162.672 4.86818 162.559 4.86818 162.447 4.86818C161.723 4.86818 161.019 4.96214 160.342 5.15004C159.581 4.87758 158.773 4.71786 157.937 4.68028L145.874 4.19173C145.742 4.19173 145.62 4.19173 145.498 4.19173C143.872 4.19173 142.303 4.6333 140.969 5.47887C139.607 6.33384 138.526 7.54582 137.756 9.07724C137.737 9.10543 137.728 9.13361 137.718 9.1618L135.36 14.0285L132.297 8.33502C132.297 8.33502 132.25 8.24107 132.222 8.19409L131.959 7.70554C131.809 7.42368 131.63 7.15122 131.442 6.89755C131.067 6.36202 130.663 5.90166 130.221 5.47887C128.802 4.16354 126.999 3.43072 124.997 3.34616L112.201 2.82003C112.088 2.82003 111.976 2.82003 111.872 2.82003C110.378 2.82003 108.969 3.22402 107.72 3.99443C106.451 3.0643 104.929 2.52878 103.304 2.46301L60.4522 0.677917C60.3395 0.677917 60.2361 0.677917 60.1234 0.677917C58.188 0.677917 56.3653 1.36377 54.8621 2.66031C53.1803 4.10717 52.2032 6.13654 52.1093 8.3726L50.1645 56.0345C50.0987 57.6411 50.4839 59.1725 51.2731 60.4879L55.3036 67.9665C55.4728 68.3329 55.6795 68.6805 55.9049 69.0187C55.9895 69.1409 56.0741 69.2536 56.1586 69.3664C56.4123 69.6952 56.6754 69.9864 56.9478 70.2495C56.7787 70.3904 56.6096 70.5408 56.4499 70.6911C54.8527 72.2319 53.9977 74.3176 54.0353 76.5443L54.0541 77.4368C52.7575 75.99 51.2731 74.6934 49.6101 73.566C46.801 71.6682 43.5972 70.2589 40.0834 69.3758C36.9736 68.5959 33.6383 68.2013 30.1714 68.2013C29.9084 68.2013 29.6453 68.2013 29.3822 68.2013C24.0739 68.2953 19.2448 69.2724 15.0263 71.1327C10.4697 73.1338 6.82432 76.1685 4.18426 80.1521C1.56299 84.1262 0.163107 88.9554 0.00338867 94.508C0.00338867 94.5455 0.00338867 94.5925 0.00338867 94.6301C-0.00600655 96.7534 0.00338866 99.0271 0.0409695 101.404C0.0785504 103.772 0.144317 106.008 0.228874 108.028C0.228874 108.065 0.228874 108.103 0.228874 108.14C0.529521 113.082 1.7509 117.395 3.88361 120.984L3.9118 121.04L7.35984 127.466C7.61352 127.983 7.88598 128.5 8.18662 129.017C8.28058 129.186 8.37453 129.345 8.47788 129.496C8.72215 129.9 8.94764 130.238 9.17312 130.557C11.8977 134.456 15.6276 137.36 20.2501 139.182C24.2712 140.77 28.9031 141.578 34.0047 141.578C34.2865 141.578 34.5684 141.578 34.8503 141.578C38.6083 141.512 42.1879 140.995 45.5044 140.047C48.9807 139.041 52.1375 137.529 54.8903 135.537C56.1304 134.644 57.2485 133.639 58.2631 132.559L60.0107 135.809C60.4898 136.796 61.1663 137.67 61.993 138.374C63.4775 139.633 65.2908 140.3 67.2262 140.3C67.2638 140.3 67.3295 140.3 67.3671 140.3L79.3648 140.094C81.5163 140.056 83.5175 139.192 85.0019 137.66C86.4864 136.129 87.285 134.099 87.2474 131.939V131.572L89.5492 135.358C89.6714 135.556 89.8029 135.744 89.9438 135.922C90.2914 136.364 90.733 136.843 91.3907 137.482C92.4711 138.525 94.4159 139.784 97.4976 139.784H97.6949L111.534 139.549C112.351 139.539 113.15 139.389 113.911 139.126C114.634 139.351 115.395 139.464 116.185 139.464C116.222 139.464 116.288 139.464 116.326 139.464L127.656 139.276C130.945 139.22 132.899 137.811 133.951 136.646C134.787 135.715 135.407 134.766 135.83 133.752C135.868 133.658 135.905 133.554 135.943 133.461L136.713 131.253L145.563 131.102L147.029 133.827C147.508 134.795 148.175 135.687 149.068 136.552C150.13 137.585 152.046 138.825 155.071 138.825H155.259L166.599 138.628C168.657 138.59 170.592 137.754 172.03 136.26C172.218 136.072 172.387 135.866 172.556 135.659C172.706 135.838 172.857 136.007 173.026 136.166C174.538 137.623 176.511 138.421 178.606 138.421C178.644 138.421 178.719 138.421 178.757 138.421L183.097 138.346C186.555 138.29 189.467 137.942 191.985 137.294C194.86 136.552 197.388 135.302 199.52 133.573C201.521 131.948 203.316 129.825 204.847 127.26C206.172 125.042 207.487 122.337 208.775 119.208L217.099 99.0083C218.217 99.572 219.457 99.8726 220.735 99.8726C220.772 99.8726 220.847 99.8726 220.885 99.8726L223.187 99.835L223.553 121.435C223.581 122.91 223.995 124.319 224.756 125.54L228.749 132.972C229.153 133.808 229.707 134.56 230.384 135.217C231.868 136.655 233.85 137.463 235.955 137.463C235.992 137.463 236.068 137.463 236.105 137.463L248.319 137.256C250.48 137.219 252.481 136.354 253.966 134.813C255.441 133.291 256.239 131.253 256.202 129.101L256.089 122.543C256.173 122.985 256.296 123.408 256.455 123.83C256.549 124.093 256.671 124.357 256.812 124.61L256.859 124.704C256.897 124.779 256.944 124.864 257 124.958L261.247 132.85C261.313 132.972 261.378 133.085 261.454 133.197C261.754 133.705 262.111 134.165 262.506 134.579C263.924 136.072 265.879 136.918 267.993 136.918C268.03 136.918 268.096 136.918 268.134 136.918L279.464 136.73C282.743 136.674 284.697 135.274 285.759 134.099C286.614 133.16 287.225 132.211 287.638 131.187C287.676 131.093 287.713 130.999 287.751 130.896L288.521 128.688L297.371 128.537L298.837 131.262C299.316 132.23 299.983 133.122 300.876 133.987C301.938 135.02 303.854 136.26 306.879 136.26H307.067L318.407 136.063C320.465 136.025 322.382 135.189 323.819 133.714C325.266 132.211 326.036 130.266 325.999 128.209C325.98 127.354 325.839 126.527 325.566 125.756L325.548 125.747ZM259.217 72.1661L259.246 72.2225C259.246 72.2225 259.302 72.3165 259.321 72.3634L263.492 80.1333C263.718 80.4433 263.849 80.8097 263.849 81.2325L263.924 85.8174L253.684 78.226L249.756 71.3393L257.517 71.2078H257.555C258.081 71.2078 258.522 71.3863 258.889 71.7339C259.02 71.8655 259.124 72.0064 259.208 72.1567L259.217 72.1661ZM213.641 13.042L225.63 13.5306C226.165 13.5494 226.616 13.7561 226.964 14.1413C227.086 14.2728 227.17 14.4137 227.246 14.5547L231.577 22.5876C231.765 22.907 231.859 23.264 231.84 23.6586L231.558 30.6393L233.174 30.705C239.845 30.9775 244.984 32.5841 248.601 35.5342C250.057 36.718 251.175 38.146 252.011 39.7902V39.7714L256.042 47.2782C256.173 47.5037 256.296 47.7386 256.418 47.9734L256.624 48.3587L256.606 48.3774C257.686 50.7356 258.184 53.5166 258.052 56.7674C257.902 60.3939 256.944 63.5037 255.168 66.078C253.759 68.1262 251.87 69.7422 249.55 70.9635L228.147 33.3921L215.783 32.6686L216.178 23.0104C216.225 21.9487 216.065 20.9152 215.699 19.9287C215.595 19.6187 215.455 19.3086 215.295 19.0174C215.248 18.9234 215.182 18.7919 215.098 18.651L212.326 13.5024C212.702 13.1923 213.106 13.0326 213.557 13.0326C213.585 13.0326 213.613 13.0326 213.632 13.0326L213.641 13.042ZM77.8334 88.6547H60.8092L60.3395 87.7716L60.1516 76.4503C60.1516 75.9148 60.3301 75.4545 60.7153 75.0787C61.1005 74.7028 61.5421 74.5149 62.0306 74.5055L74.0283 74.2988H74.0659C74.592 74.2988 75.0336 74.4774 75.4 74.825C75.7758 75.182 75.9637 75.633 75.9731 76.1779L76.0765 82.4821L77.42 82.4633L77.824 88.6453L77.8334 88.6547ZM143.177 11.7925C143.44 11.2663 143.778 10.8717 144.182 10.6181C144.549 10.3832 144.981 10.2704 145.47 10.2704C145.507 10.2704 145.554 10.2704 145.601 10.2704L157.665 10.759C158.153 10.7778 158.548 10.9563 158.858 11.2851C158.942 11.3697 159.008 11.4636 159.064 11.5576L160.474 14.1601L160.53 12.7884C160.549 12.2528 160.756 11.8019 161.141 11.4542C161.498 11.1254 161.93 10.9563 162.428 10.9563C162.456 10.9563 162.494 10.9563 162.522 10.9563L203.861 12.638C204.396 12.6568 204.847 12.8635 205.195 13.2487C205.326 13.3896 205.42 13.54 205.496 13.6997L205.608 13.9064C205.58 14.1413 205.552 14.3855 205.543 14.6298L204.829 32.0485L164.542 29.6903L164.739 24.7579L161.939 24.6451C161.939 24.6451 161.921 24.6451 161.902 24.6451L159.609 29.4085L135.313 27.9898L143.158 11.8113L143.177 11.7925ZM111.91 8.89873L124.706 9.42487C125.242 9.44366 125.683 9.61277 126.012 9.92281C126.209 10.1013 126.378 10.3362 126.538 10.5805L126.82 11.0972C126.82 11.0972 126.829 11.116 126.839 11.1254L130.888 18.6604C131.01 18.8483 131.123 19.0456 131.226 19.2711L135.05 27.9616L117.735 26.9469L115.217 21.7044L115.33 18.9234C115.367 17.9275 115.236 16.9504 114.916 16.0203C114.813 15.7103 114.691 15.4002 114.541 15.109C114.437 14.9023 114.334 14.6956 114.212 14.4983L111.262 9.00208C111.44 8.94571 111.628 8.90813 111.825 8.90813C111.853 8.90813 111.882 8.90813 111.91 8.90813V8.89873ZM56.2714 56.2882L58.2162 8.62627C58.235 8.09074 58.451 7.63977 58.855 7.29215C59.2402 6.96332 59.663 6.7942 60.1234 6.7942C60.1516 6.7942 60.1798 6.7942 60.1986 6.7942L103.013 8.54171C103.426 8.56051 103.783 8.68264 104.093 8.91752C103.99 9.3591 103.924 9.81007 103.905 10.2798C103.858 11.4354 104.084 12.5629 104.563 13.6433C104.582 13.6903 104.6 13.7279 104.619 13.7749L109.054 22.9916L108.781 29.7279L87.6044 44.8448L88.2151 29.9158L77.9179 29.4931L76.9878 52.4174L75.5315 53.4509L76.3301 65.7304C76.2268 65.9935 76.0765 66.2284 75.8604 66.4257C75.5034 66.7545 75.0712 66.9236 74.5732 66.9236C74.5451 66.9236 74.5075 66.9236 74.4793 66.9236L62.491 66.435C62.0024 66.4163 61.5703 66.2283 61.1851 65.8619C61.1099 65.7868 61.0441 65.7022 60.9784 65.6177V65.5989C60.8938 65.4955 60.8374 65.3922 60.7905 65.2794L56.5814 57.4626C56.3559 57.1432 56.2526 56.758 56.2714 56.2976V56.2882ZM51.3201 130.586C49.1404 132.164 46.6413 133.367 43.8321 134.175C41.0229 134.983 37.9977 135.415 34.7657 135.471C34.512 135.471 34.2677 135.471 34.0235 135.471C29.6735 135.471 25.8308 134.813 22.5143 133.498C19.0099 132.108 16.2289 129.956 14.1996 127.053C13.9835 126.743 13.7768 126.414 13.5795 126.085L13.5419 126.02C13.2882 125.597 13.0533 125.155 12.8279 124.695L9.32345 118.156H9.33284C7.60412 115.365 6.59883 111.917 6.35456 107.783C6.27 105.773 6.21363 103.612 6.17605 101.31C6.13847 99.0083 6.11968 96.791 6.13847 94.6865C6.2606 90.2707 7.31287 86.5596 9.30466 83.5531C11.287 80.5467 14.0211 78.2824 17.5067 76.751C20.9923 75.2196 24.9853 74.4116 29.5044 74.3364C29.7393 74.3364 29.9647 74.3364 30.1902 74.3364C33.1685 74.3364 35.9777 74.6653 38.6083 75.3323C41.4457 76.0464 43.973 77.155 46.2091 78.6676C48.4451 80.1803 50.2208 82.0499 51.5362 84.286C51.5737 84.3517 51.6113 84.4175 51.6489 84.4927L53.8944 88.6829H24.5719C24.5719 88.6829 25.8496 97.9936 26.9959 104.824C26.9677 107.971 27.0146 111.166 27.1744 114.426C28.0105 114.698 28.9407 114.839 29.9741 114.839C30.0399 114.839 30.1057 114.839 30.1714 114.839C31.9377 114.811 33.441 114.388 34.6811 113.58C35.0382 113.345 35.367 113.054 35.6676 112.725C40.4122 113.27 47.1486 114.041 54.693 114.896L54.8527 124.291C54.8621 125.118 55.003 125.916 55.2473 126.687C54.1762 128.18 52.8703 129.496 51.3201 130.614V130.586ZM80.6332 133.404C80.2761 133.78 79.8252 133.968 79.2802 133.977L67.2825 134.184H67.245C66.7658 134.184 66.3336 134.024 65.9484 133.695C65.7229 133.508 65.5726 133.282 65.4693 133.019L62.1903 126.931C63.6654 123.906 64.417 120.486 64.417 116.737C64.417 116.699 64.417 116.671 64.417 116.634C64.417 116.408 64.3888 116.192 64.3606 115.967C69.8662 116.587 75.5128 117.226 80.9338 117.836L81.1687 132.032C81.1687 132.577 80.9996 133.028 80.6426 133.404H80.6332ZM97.6103 133.667C97.6103 133.667 97.5445 133.667 97.5164 133.667C96.6802 133.667 96.0601 133.47 95.6467 133.075C95.2239 132.662 94.9327 132.361 94.7823 132.173L86.43 118.456C93.5704 119.264 100.006 119.988 104.769 120.523L104.553 121.153C104.553 121.153 104.525 121.228 104.516 121.256C104.272 122.036 104.149 122.863 104.168 123.718C104.187 124.789 104.422 125.822 104.854 126.79C104.92 126.94 104.995 127.1 105.08 127.25L108.434 133.479L97.6103 133.658V133.667ZM167.642 132.004C167.332 132.333 166.947 132.493 166.505 132.502L155.165 132.69C155.165 132.69 155.109 132.69 155.081 132.69C154.292 132.69 153.7 132.502 153.315 132.136C152.92 131.751 152.638 131.384 152.488 131.046L149.19 124.92L132.363 125.202L130.184 131.422C130.043 131.769 129.789 132.136 129.432 132.54C129.075 132.944 128.445 133.141 127.562 133.16L118.994 133.301C119.097 132.775 119.154 132.23 119.144 131.675C119.116 130.238 118.806 129.007 118.176 127.936L114.634 121.35L163.584 118.569L168.018 130.332C168.065 130.482 168.093 130.651 168.103 130.849C168.103 131.29 167.952 131.675 167.642 131.995V132.004ZM203.137 116.859C201.963 119.725 200.789 122.139 199.614 124.093C198.44 126.048 197.134 127.617 195.678 128.801C194.221 129.975 192.483 130.83 190.454 131.356C188.424 131.882 185.935 132.164 182.994 132.22L178.653 132.296H178.616C178.09 132.296 177.648 132.117 177.282 131.769C177.15 131.647 177.056 131.506 176.962 131.356L172.584 123.22C172.424 122.938 172.33 122.628 172.321 122.28L172.246 118.09L182.909 117.489L204.556 87.0106L215.652 86.4469L203.119 116.878L203.137 116.859ZM249.569 130.548C249.212 130.924 248.761 131.112 248.216 131.121L235.992 131.328H235.955C235.429 131.328 234.987 131.149 234.621 130.802C234.433 130.623 234.301 130.426 234.207 130.2L230.017 122.393C229.792 122.083 229.679 121.717 229.669 121.303L229.2 93.5966L220.782 93.7376H220.744C220.218 93.7376 219.776 93.559 219.41 93.2114C219.034 92.845 218.846 92.4034 218.837 91.8585L218.743 86.2777L237.204 85.3382L249.916 118.823L250.095 129.176C250.095 129.721 249.926 130.172 249.569 130.548ZM319.422 129.439C319.103 129.768 318.727 129.928 318.285 129.937L306.945 130.125C306.945 130.125 306.889 130.125 306.861 130.125C306.071 130.125 305.48 129.937 305.094 129.571C304.7 129.186 304.418 128.819 304.268 128.481L300.97 122.355L284.143 122.637L281.963 128.857C281.822 129.204 281.569 129.571 281.212 129.975C280.845 130.379 280.225 130.576 279.342 130.595L268.002 130.783H267.974C267.551 130.783 267.185 130.633 266.893 130.323C266.781 130.2 266.687 130.069 266.621 129.928L262.327 121.942C262.327 121.942 262.29 121.867 262.271 121.839L262.196 121.688C262.111 121.491 262.064 121.284 262.064 121.049C262.064 120.852 262.083 120.683 262.13 120.533L262.656 118.973L270.755 117.263L274.306 93.4839L271.863 91.6706L278.111 73.1338C278.299 72.5889 278.637 72.0722 279.117 71.5742C279.596 71.0763 280.282 70.8132 281.165 70.8038L294.637 70.5783C294.637 70.5783 294.694 70.5783 294.722 70.5783C295.615 70.5783 296.3 70.8132 296.78 71.283C297.024 71.5179 297.221 71.7621 297.39 72.0064C297.484 72.1567 297.569 72.3071 297.635 72.4668L301.75 80.1239C301.928 80.3963 302.069 80.6782 302.154 80.9601L319.807 127.786C319.864 127.936 319.882 128.105 319.892 128.303C319.892 128.744 319.741 129.129 319.431 129.449L319.422 129.439Z" fill="black"/>
<path d="M209.921 21.9205L209.874 21.8266C209.846 21.7702 209.817 21.7138 209.78 21.6575L205.496 13.6903L202.301 20.5394L166.9 19.0926C166.365 19.0738 165.904 19.2335 165.519 19.5905C165.134 19.9475 160.028 22.9645 160 23.5L164 30.5C164 30.5 164.645 31.7761 165.002 32.1613C165.359 32.5465 165.801 32.7438 166.336 32.772L178.992 33.2887L177.902 60.1309L173.326 61.9441L177.77 70.2119C177.845 70.3341 177.921 70.4562 178.024 70.569C178.381 70.9542 178.823 71.1515 179.358 71.1797L191.572 71.6776C192.107 71.6964 192.568 71.5367 192.953 71.1797C193.338 70.8226 193.535 70.3811 193.564 69.8455L195.029 33.9464L207.685 34.4631C208.22 34.4819 208.69 34.3222 209.066 33.9652C209.451 33.6082 209.648 33.1666 209.676 32.6217L210.08 22.7661C210.09 22.456 210.033 22.1742 209.921 21.9111V21.9205Z" fill="#7F0012"/>
<path d="M256.606 48.3868L256.624 48.368L256.418 47.9828C256.296 47.748 256.173 47.5131 256.042 47.2876L252.021 39.7808L250.762 42.1766C247.361 40.1942 242.973 39.0856 237.571 38.8601L231.248 38.6064L231.859 23.6774C231.877 23.2734 231.783 22.9164 231.596 22.6064L227.264 14.5641L222.275 21.3756L218.029 21.2065C217.54 21.1877 217.089 21.3568 216.685 21.7044C216.281 22.052 216.065 22.503 216.046 23.0385L214.43 62.7145L209.968 63.5601L214.346 71.7058C214.421 71.8373 214.515 71.9688 214.637 72.091C215.013 72.4762 215.445 72.6735 215.943 72.6923L236.171 73.5191C240.634 73.6976 244.476 73.162 247.699 71.8843C250.921 70.6159 253.421 68.6899 255.196 66.1156C256.972 63.5319 257.93 60.4315 258.081 56.805C258.212 53.5542 257.714 50.7638 256.634 48.415L256.606 48.3868ZM240.202 60.1027C239.347 61.1455 238.116 61.6341 236.49 61.5683L230.308 61.3147L230.75 50.5008L236.932 50.7544C238.351 50.8108 239.497 51.29 240.371 52.1825C241.244 53.0751 241.639 54.4092 241.573 56.1755C241.507 57.7445 241.047 59.0504 240.202 60.1027Z" fill="#7F0012"/>
<path d="M109.101 17.8618L109.072 17.8054C109.035 17.7114 108.979 17.6175 108.922 17.5235L104.619 9.51881C104.619 9.51881 103.097 13.4272 101.923 16.4525L64.5767 14.9305C64.0882 14.9117 63.6372 15.0808 63.2332 15.4284C62.8292 15.776 62.6131 16.227 62.5943 16.7625L60.9689 56.664L56.572 57.4438L60.781 65.2606C60.828 65.3734 60.8844 65.4767 60.9502 65.5801V65.6083H60.9689C61.0347 65.6928 61.0911 65.768 61.1756 65.8432C61.5514 66.2002 61.9836 66.3881 62.4816 66.4163L74.4699 66.9048C75.0054 66.9236 75.4658 66.7639 75.851 66.4069C76.2362 66.0498 76.4335 65.6083 76.4617 65.0727L77.9085 29.4743L92.9127 30.0849L91.7571 58.4303L87.3037 58.5243L91.7289 66.7263C91.804 66.8484 91.8886 66.9612 92.0013 67.0739C92.3772 67.4591 92.8093 67.6564 93.3073 67.6752L105.296 68.1638C105.831 68.1826 106.301 68.0228 106.677 67.6658C107.062 67.3088 107.259 66.8672 107.287 66.3317L109.232 18.6698C109.242 18.3785 109.195 18.1154 109.101 17.8712V17.8618Z" fill="#7F0012"/>
<path d="M163.471 19.722L159.064 11.5482L150.928 18.3128L151.078 18.4443L149.979 18.3973C149.434 18.3785 148.965 18.4913 148.561 18.7449C148.157 18.9986 147.818 19.3932 147.555 19.9193L139.147 37.2629L131.226 19.2523C131.123 19.0268 131.01 18.8389 130.888 18.651L126.529 10.5523L125.12 12.4877L127.121 17.4672L116.279 17.0256C115.79 17.0068 115.348 17.1571 114.973 17.486C114.587 17.8148 114.39 18.2 114.371 18.6416C114.371 18.8389 114.4 19.0362 114.494 19.2335L130.841 53.2348C130.165 53.977 129.413 54.5313 128.586 54.8789C127.731 55.236 126.726 55.3957 125.542 55.3487L122.602 55.2266C122.066 55.2078 121.606 55.3675 121.22 55.7245C120.835 56.0815 120.638 56.5231 120.61 57.0586L120.506 59.6705L116.053 59.6987L120.422 67.8068C120.45 67.8537 120.469 67.9101 120.497 67.9571L120.516 67.9853C120.572 68.0604 120.629 68.145 120.704 68.2296C121.061 68.6148 121.502 68.8121 122.038 68.8402L126.378 69.0187C129.319 69.1409 131.818 68.9906 133.876 68.5866C135.933 68.1826 137.718 67.431 139.231 66.3411C140.753 65.2513 142.144 63.7574 143.431 61.869C144.709 59.9805 146.024 57.6411 147.367 54.8414L163.142 22.0333C163.245 21.789 163.358 21.5353 163.471 21.2723C163.584 21.0092 163.64 20.7555 163.649 20.5018C163.659 20.2294 163.584 19.9663 163.443 19.722H163.471Z" fill="#7F0012"/>
<path d="M58.1034 58.28C57.6149 58.2612 57.1827 58.0733 56.7975 57.7069C56.4217 57.3499 56.2432 56.8707 56.2619 56.2882L58.2068 8.62626C58.2255 8.09074 58.4416 7.63977 58.8456 7.29214C59.2496 6.94452 59.7006 6.77541 60.1891 6.7942L103.003 8.54171C103.539 8.5605 103.99 8.76719 104.337 9.1524C104.694 9.5376 104.854 9.99797 104.835 10.5335L102.89 58.1954C102.872 58.731 102.665 59.1819 102.28 59.5296C101.895 59.8866 101.434 60.0463 100.899 60.0275L88.9103 59.539C88.4218 59.5202 87.9896 59.3135 87.6044 58.9377C87.2286 58.5525 87.0501 58.0921 87.0689 57.5566L88.5157 21.9581L73.5116 21.3474L72.0647 56.9459C72.0459 57.4814 71.8392 57.9324 71.454 58.28C71.0688 58.637 70.6084 58.7967 70.0729 58.7779L58.0846 58.2894L58.1034 58.28Z" fill="#E80024"/>
<path d="M158.858 11.2851C158.548 10.9563 158.153 10.7778 157.665 10.759L145.601 10.2704C145.056 10.2516 144.586 10.3644 144.182 10.618C143.778 10.8717 143.44 11.2663 143.177 11.7924L134.768 29.136L126.848 11.1254C126.623 10.6274 126.341 10.2234 126.012 9.9134C125.683 9.60336 125.242 9.44364 124.706 9.41545L111.91 8.88932C111.421 8.87053 110.98 9.02085 110.604 9.34969C110.219 9.67852 110.021 10.0637 110.003 10.5053C110.003 10.7026 110.031 10.8999 110.125 11.0972L126.472 45.0985C125.796 45.8407 125.044 46.395 124.218 46.7427C123.363 47.0997 122.357 47.2594 121.174 47.2124L118.233 47.0903C117.697 47.0715 117.237 47.2312 116.852 47.5882C116.467 47.9452 116.269 48.3868 116.241 48.9223L115.846 58.7028C115.828 59.2383 115.987 59.6987 116.344 60.0839C116.701 60.4691 117.143 60.6664 117.678 60.6946L122.019 60.8731C124.96 60.9952 127.459 60.8543 129.516 60.4409C131.574 60.0369 133.359 59.2853 134.872 58.1954C136.394 57.1056 137.784 55.6117 139.071 53.7233C140.349 51.8349 141.664 49.4955 143.008 46.6957L158.783 13.8876C158.886 13.6433 158.999 13.3896 159.111 13.1266C159.224 12.8635 159.281 12.6098 159.29 12.3562C159.309 11.9616 159.158 11.6045 158.858 11.2663V11.2851Z" fill="#E80024"/>
<path d="M174.989 63.0434C174.444 63.0246 174.003 62.8179 173.655 62.4327C173.308 62.0475 173.138 61.5871 173.157 61.0516L174.623 25.1525L161.968 24.6357C161.432 24.6169 160.981 24.4102 160.633 24.025C160.276 23.6398 160.117 23.1795 160.135 22.6439L160.539 12.7884C160.558 12.2528 160.765 11.8019 161.15 11.4542C161.535 11.0972 161.996 10.9375 162.531 10.9563L203.87 12.638C204.406 12.6568 204.857 12.8635 205.204 13.2487C205.561 13.6339 205.721 14.0943 205.702 14.6298L205.298 24.4854C205.28 25.0303 205.073 25.4719 204.688 25.8289C204.302 26.1859 203.842 26.3457 203.307 26.3269L190.651 25.8101L189.186 61.7093C189.167 62.2448 188.96 62.6957 188.575 63.0434C188.19 63.4004 187.729 63.5601 187.194 63.5413L174.98 63.0434H174.989Z" fill="#E80024"/>
<path d="M225.93 53.1784L232.112 53.4321C233.728 53.4978 234.968 53.0093 235.823 51.9664C236.678 50.9235 237.139 49.6176 237.195 48.0392C237.27 46.2729 236.866 44.9482 235.992 44.0462C235.119 43.1537 233.973 42.6745 232.554 42.6182L226.372 42.3645L225.93 53.1784ZM211.546 64.5278C211.058 64.509 210.625 64.3023 210.24 63.9265C209.864 63.5413 209.686 63.0809 209.705 62.5454L211.649 14.8835C211.668 14.348 211.884 13.897 212.288 13.5494C212.692 13.2017 213.143 13.0326 213.632 13.0514L225.62 13.54C226.156 13.5588 226.607 13.7655 226.954 14.1507C227.311 14.5359 227.471 14.9962 227.452 15.5318L226.842 30.4608L233.165 30.7144C239.835 30.9869 244.974 32.5935 248.591 35.5436C252.199 38.4937 253.89 42.8624 253.655 48.6405C253.505 52.2671 252.547 55.3769 250.771 57.9512C248.995 60.5348 246.496 62.4515 243.274 63.7198C240.051 64.9882 236.209 65.5331 231.746 65.3546L211.518 64.5278H211.546Z" fill="#E80024"/>
<path d="M150.364 83.525C150.317 83.3652 150.252 83.2055 150.177 83.0552L145.667 74.6841L143.807 78.8367L146.775 81.3077L133.763 81.5238C132.88 81.5426 132.194 81.7962 131.715 82.2942C131.236 82.7921 130.898 83.3183 130.71 83.8538L117.509 122.994L110.463 124.357L114.898 132.596C114.963 132.7 115.029 132.793 115.123 132.887C115.424 133.207 115.79 133.357 116.232 133.348L127.572 133.16C128.455 133.141 129.075 132.934 129.441 132.54C129.798 132.145 130.052 131.769 130.193 131.422L132.373 125.202L149.199 124.92L152.497 131.046C152.647 131.384 152.929 131.751 153.324 132.136C153.719 132.521 154.339 132.709 155.175 132.69L166.515 132.502C166.956 132.502 167.332 132.333 167.652 132.004C167.962 131.685 168.121 131.3 168.112 130.858C168.112 130.661 168.084 130.492 168.027 130.341L150.374 83.5156L150.364 83.525ZM135.539 112.707L140.706 96.0488L146.503 112.519L135.539 112.707Z" fill="#999999"/>
<path d="M263.502 92.4692C263.859 92.0934 264.037 91.6424 264.028 91.0975L263.859 81.2325C263.859 80.8097 263.727 80.4433 263.502 80.1333L259.227 72.1661C259.227 72.1661 257.771 76.3658 256.709 79.4474L220.556 80.0581C220.021 80.0581 219.57 80.2554 219.203 80.6312C218.846 81.007 218.668 81.458 218.677 82.0029L218.715 84.4927L216.46 84.5208L216.995 83.2149C217.089 82.9706 217.183 82.7076 217.277 82.4351C217.371 82.1626 217.418 81.909 217.409 81.6553C217.409 81.2607 217.24 80.9131 216.911 80.5936L212.861 72.899L205.947 79.3535L206.877 80.2836L203.607 80.34C203.062 80.34 202.602 80.4903 202.217 80.7721C201.831 81.054 201.512 81.458 201.277 82.0029L193.883 99.7975L184.939 82.2754L180.551 74.1297L180.044 79.485L181.528 80.7158L169.888 80.9131C169.399 80.9131 168.967 81.101 168.61 81.4486C168.244 81.7962 168.074 82.1908 168.074 82.6324C168.074 82.8297 168.131 83.027 168.234 83.2149L186.508 116.22C185.869 117.01 185.155 117.601 184.356 117.996C183.53 118.4 182.524 118.616 181.35 118.635L178.409 118.682C177.864 118.682 177.423 118.879 177.056 119.255C176.699 119.631 176.521 120.082 176.53 120.627L176.568 122.91L172.565 123.21L176.944 131.347C177.028 131.488 177.131 131.628 177.263 131.76C177.639 132.117 178.09 132.296 178.635 132.286L182.975 132.211C185.916 132.164 188.406 131.873 190.435 131.347C192.464 130.82 194.203 129.966 195.659 128.791C197.115 127.617 198.421 126.048 199.595 124.084C200.76 122.13 201.935 119.715 203.119 116.85L215.652 86.4187L218.95 92.5256C219.006 92.6759 219.081 92.8074 219.175 92.9389C219.241 93.0329 219.307 93.1175 219.391 93.1926C219.767 93.5496 220.218 93.7281 220.763 93.7188L233.428 93.5027L233.916 122.29H229.961L234.198 130.182C234.292 130.398 234.433 130.604 234.611 130.773C234.987 131.131 235.438 131.309 235.983 131.3L248.206 131.093C248.742 131.093 249.202 130.896 249.559 130.52C249.926 130.144 250.095 129.693 250.085 129.148L249.475 93.2302L262.139 93.0141C262.675 93.0141 263.126 92.8168 263.492 92.441L263.502 92.4692Z" fill="#999999"/>
<path d="M319.788 127.786L302.135 80.9601C302.05 80.6782 301.919 80.3963 301.731 80.1239L297.371 72.0064L294.168 77.0798L295.652 78.7804L285.533 78.9495C284.65 78.9683 283.964 79.2219 283.485 79.7199C283.006 80.2178 282.668 80.744 282.48 81.2795L268.848 121.679H262.168L266.602 129.919C266.677 130.059 266.762 130.191 266.875 130.313C267.175 130.633 267.542 130.783 267.983 130.774L279.323 130.586C280.206 130.567 280.826 130.36 281.193 129.966C281.55 129.571 281.804 129.195 281.944 128.847L284.124 122.628L300.951 122.346L304.249 128.472C304.399 128.81 304.681 129.176 305.075 129.562C305.47 129.947 306.09 130.135 306.926 130.116L318.266 129.928C318.708 129.928 319.084 129.759 319.403 129.43C319.713 129.111 319.873 128.725 319.864 128.284C319.864 128.086 319.835 127.917 319.779 127.767L319.788 127.786ZM287.319 110.151L292.486 93.4933L298.283 109.963L287.319 110.151Z" fill="#999999"/>
<path d="M58.0752 115.967L53.6783 107.802L49.1404 115.281L49.2531 115.347L44.2173 115.431C43.4845 115.441 42.9301 115.591 42.5637 115.863C42.1973 116.136 41.9249 116.671 41.7463 117.46C41.192 119.48 40.2995 120.899 39.0593 121.707C37.8191 122.515 36.3159 122.928 34.5496 122.966C32.3887 123.004 30.66 122.459 29.3634 121.322C28.0669 120.194 27.3435 118.175 27.2025 115.281C26.9865 111.062 26.9113 106.938 26.9958 102.917C27.0428 100.023 27.7005 97.9842 28.9501 96.8098C30.209 95.6354 31.9095 95.0247 34.0704 94.9965C35.8367 94.9683 37.34 95.3066 38.5802 96.0206C39.8203 96.7346 40.7786 98.1439 41.4457 100.239C41.6994 100.972 42.0094 101.479 42.357 101.77C42.7047 102.062 43.2496 102.193 43.9824 102.184L56.4217 101.977C56.8632 101.977 57.2391 101.808 57.5585 101.479C57.8685 101.15 58.0283 100.775 58.0189 100.333C57.9343 97.7963 57.427 95.5508 56.4968 93.5684L56.4499 93.4651C56.2807 93.1081 56.0928 92.7511 55.8955 92.4128C55.8768 92.3846 55.858 92.3565 55.8392 92.3283L51.6301 84.4739L50.2584 86.6066C48.0975 85.2067 45.6735 84.145 42.9771 83.4686C40.1398 82.7545 37.1051 82.4257 33.8638 82.4821C29.3447 82.5572 25.3517 83.3652 21.8661 84.8966C18.3804 86.4281 15.6464 88.6923 13.664 91.6988C11.6816 94.7053 10.62 98.4164 10.4978 102.832C10.4885 104.946 10.4978 107.154 10.5354 109.456C10.573 111.767 10.6388 113.918 10.7139 115.929C10.7609 116.699 10.8455 117.442 10.9394 118.165H9.29526L12.7997 124.704C13.0158 125.165 13.26 125.606 13.5137 126.029L13.5513 126.104C13.7486 126.433 13.9553 126.752 14.1714 127.072C16.2101 129.984 18.9817 132.136 22.4861 133.517C25.9906 134.907 30.0775 135.565 34.7375 135.48C37.9789 135.424 40.9947 134.992 43.8039 134.184C46.6131 133.376 49.1122 132.183 51.2919 130.595C53.4716 129.017 55.1815 127.072 56.4217 124.77C57.6618 122.468 58.2725 119.79 58.2725 116.746C58.2725 116.455 58.188 116.202 58.047 115.976L58.0752 115.967Z" fill="#999999"/>
<path d="M108.49 122.844L108.124 123.455L97.6667 106.872L110.764 84.3423C110.905 84.0417 110.97 83.7786 110.97 83.5249C110.97 83.1867 110.867 82.8861 110.688 82.6136L106.395 74.6277L101.397 82.0687L95.9286 82.1626C95.1957 82.172 94.6038 82.3411 94.1717 82.67C93.7395 82.9988 93.4013 83.3558 93.157 83.7504L83.5081 100.925L80.6332 100.972L80.3513 84.3329C80.3513 83.7974 80.3758 83.3664 80 83C80 83 76.0449 74.9906 75.5 75L66.4088 82.6606C65.9202 82.6606 65.4787 82.8579 65.0935 83.2337C64.7083 83.6095 64.5204 84.0699 64.5297 84.6054L65.2062 124.488L61.0911 124.892L65.4693 133.019C65.5726 133.282 65.7229 133.508 65.9484 133.695C66.343 134.034 66.794 134.193 67.2825 134.184L79.2802 133.977C79.8158 133.977 80.2667 133.78 80.6332 133.404C80.9996 133.028 81.1687 132.577 81.1593 132.032L80.868 114.952L84.2503 114.896L94.773 132.164C94.9233 132.361 95.2145 132.662 95.6373 133.066C96.0601 133.479 96.7178 133.677 97.6009 133.658L111.44 133.423C111.882 133.423 112.257 133.254 112.577 132.925C112.887 132.606 113.047 132.22 113.037 131.779C113.037 131.384 112.981 131.121 112.878 130.971L108.49 122.825V122.844Z" fill="#999999"/>
<path d="M30.3781 127.325C25.7181 127.401 21.6312 126.752 18.1267 125.362C14.6223 123.971 11.8413 121.82 9.81197 118.917C7.7826 116.014 6.6176 112.293 6.34514 107.783C6.26058 105.773 6.20421 103.612 6.16663 101.31C6.12905 99.0083 6.11025 96.791 6.12905 94.6865C6.25118 90.2707 7.30345 86.5596 9.29523 83.5531C11.2776 80.5467 14.0116 78.2824 17.4973 76.751C20.9829 75.2196 24.9759 74.4116 29.495 74.3364C32.7363 74.28 35.771 74.6089 38.6083 75.3229C41.4457 76.0369 43.973 77.1456 46.209 78.6582C48.4451 80.1708 50.2208 82.0405 51.5361 84.2766C52.8515 86.5126 53.5561 89.1527 53.6595 92.1967C53.6595 92.6383 53.5091 93.0235 53.1991 93.3429C52.889 93.6718 52.5038 93.8315 52.0623 93.8409L39.623 94.0476C38.8902 94.057 38.3452 93.9254 37.9976 93.6342C37.65 93.3429 37.3494 92.8356 37.0863 92.1028C36.4098 90.0076 35.4515 88.5984 34.2207 87.8843C32.9806 87.1703 31.4773 86.8227 29.711 86.8602C27.5501 86.8978 25.8402 87.4991 24.5907 88.6735C23.3317 89.8479 22.6834 91.8867 22.6364 94.7804C22.5613 98.811 22.627 102.926 22.8431 107.145C22.9935 110.038 23.7075 112.049 25.004 113.186C26.3006 114.322 28.0293 114.867 30.1902 114.83C31.9565 114.802 33.4597 114.379 34.6999 113.571C35.9401 112.763 36.8326 111.354 37.3869 109.324C37.5654 108.535 37.8473 108.009 38.2043 107.727C38.5707 107.455 39.1157 107.304 39.8579 107.295L52.2971 107.088C52.7387 107.088 53.1239 107.22 53.4434 107.511C53.7628 107.802 53.9319 108.169 53.9413 108.61C53.9413 111.654 53.3212 114.332 52.0905 116.634C50.8503 118.936 49.1404 120.88 46.9607 122.459C44.781 124.037 42.2818 125.24 39.4727 126.048C36.6635 126.856 33.6382 127.288 30.4063 127.344L30.3781 127.325Z" fill="white"/>
<path d="M62.895 126.038C62.4064 126.038 61.9555 125.879 61.5609 125.55C61.1663 125.212 60.9596 124.751 60.9502 124.159L60.1422 76.4597C60.1422 75.9242 60.3207 75.4638 60.7059 75.088C61.0911 74.7122 61.5327 74.5243 62.0212 74.5149L74.0189 74.3082C74.5544 74.3082 75.0148 74.4773 75.3906 74.8344C75.7664 75.1914 75.9543 75.6423 75.9637 76.1873L76.2456 92.8262L79.1205 92.7792L88.7694 75.6048C89.0043 75.2102 89.3425 74.8438 89.7841 74.5243C90.2257 74.2049 90.8082 74.0264 91.541 74.017L105.014 73.7915C105.455 73.7915 105.831 73.9418 106.122 74.2519C106.423 74.5619 106.573 74.9471 106.583 75.3887C106.583 75.6329 106.517 75.9054 106.376 76.2061L93.2791 98.7358L108.49 122.853C108.593 123.004 108.64 123.267 108.65 123.661C108.65 124.103 108.499 124.488 108.189 124.808C107.879 125.136 107.494 125.296 107.053 125.305L93.2133 125.54C92.3302 125.559 91.6725 125.362 91.2498 124.948C90.827 124.535 90.5357 124.234 90.3854 124.047L79.8627 106.778L76.4805 106.834L76.7717 123.915C76.7717 124.46 76.6026 124.911 76.2456 125.287C75.8886 125.662 75.4376 125.85 74.8927 125.86L62.895 126.066V126.038Z" fill="white"/>
<path d="M111.844 125.212C111.402 125.212 111.036 125.071 110.735 124.751C110.435 124.441 110.284 124.056 110.275 123.614C110.275 123.417 110.294 123.248 110.341 123.098L126.331 75.7081C126.519 75.1632 126.858 74.6464 127.337 74.1485C127.816 73.6506 128.502 73.3875 129.385 73.3781L142.858 73.1526C143.788 73.1338 144.502 73.3687 145 73.8573C145.498 74.3364 145.827 74.8531 145.986 75.3887L163.64 122.214C163.687 122.365 163.715 122.534 163.724 122.731C163.724 123.173 163.574 123.558 163.264 123.877C162.954 124.206 162.569 124.366 162.127 124.375L150.787 124.563C149.951 124.573 149.34 124.394 148.936 124.009C148.542 123.624 148.26 123.257 148.11 122.919L145.723 116.775L127.985 117.075L125.805 123.295C125.664 123.643 125.411 124.009 125.054 124.413C124.697 124.817 124.067 125.014 123.184 125.033L111.844 125.221V125.212ZM131.151 104.561L142.115 104.373L136.319 87.9031L131.151 104.561Z" fill="white"/>
<path d="M212.523 72.448C212.194 72.1379 211.79 71.9782 211.302 71.9876L199.229 72.1943C198.684 72.1943 198.224 72.3446 197.838 72.6265C197.453 72.9083 197.134 73.3123 196.899 73.8573L189.505 91.6518L180.561 74.1297C180.307 73.6412 180.006 73.256 179.659 72.9647C179.311 72.6735 178.87 72.5325 178.325 72.5419L165.519 72.758C165.03 72.758 164.598 72.9459 164.241 73.2935C163.875 73.6412 163.706 74.0358 163.706 74.4773C163.706 74.6746 163.762 74.8719 163.865 75.0598L182.139 108.065C181.5 108.854 180.786 109.446 179.988 109.841C179.161 110.245 178.155 110.461 176.981 110.48L174.04 110.527C173.495 110.527 173.054 110.724 172.687 111.1C172.33 111.476 172.152 111.927 172.161 112.472L172.33 122.261C172.33 122.806 172.528 123.248 172.904 123.614C173.279 123.971 173.73 124.15 174.275 124.14L178.616 124.065C181.557 124.018 184.046 123.727 186.076 123.201C188.105 122.675 189.843 121.82 191.299 120.645C192.756 119.471 194.062 117.902 195.236 115.938C196.401 113.984 197.575 111.57 198.759 108.704L212.627 75.0411C212.721 74.7968 212.814 74.5337 212.908 74.2612C213.002 73.9888 213.049 73.7351 213.04 73.4814C213.04 73.0868 212.871 72.7392 212.542 72.4198L212.523 72.448Z" fill="white"/>
<path d="M231.605 123.192C231.06 123.192 230.609 123.022 230.233 122.665C229.857 122.308 229.669 121.857 229.66 121.312L229.049 85.3946L216.385 85.6107C215.849 85.6107 215.389 85.4416 215.013 85.0845C214.637 84.7181 214.449 84.2766 214.44 83.7316L214.271 73.8667C214.271 73.3311 214.44 72.8708 214.797 72.495C215.163 72.1191 215.605 71.9312 216.15 71.9218L257.517 71.2266C258.052 71.2266 258.513 71.3957 258.889 71.7527C259.264 72.1097 259.452 72.5607 259.462 73.1056L259.631 82.9706C259.631 83.5155 259.462 83.9665 259.105 84.3423C258.738 84.7181 258.297 84.906 257.752 84.9154L245.087 85.1315L245.698 121.049C245.698 121.594 245.529 122.045 245.172 122.421C244.815 122.797 244.364 122.985 243.819 122.994L231.596 123.201L231.605 123.192Z" fill="white"/>
<path d="M263.624 122.656C263.182 122.656 262.816 122.515 262.515 122.196C262.215 121.886 262.064 121.5 262.055 121.059C262.055 120.862 262.074 120.692 262.121 120.542L278.111 73.1526C278.299 72.6077 278.637 72.0909 279.117 71.593C279.596 71.095 280.282 70.832 281.165 70.8226L294.637 70.5971C295.568 70.5783 296.282 70.8132 296.78 71.3017C297.277 71.7903 297.606 72.2976 297.766 72.8332L315.42 119.659C315.476 119.809 315.495 119.978 315.504 120.176C315.504 120.617 315.354 121.002 315.044 121.322C314.724 121.651 314.349 121.81 313.907 121.82L302.567 122.008C301.731 122.017 301.12 121.839 300.716 121.453C300.322 121.068 300.04 120.702 299.889 120.364L297.503 114.219L279.765 114.52L277.585 120.739C277.444 121.087 277.191 121.453 276.833 121.857C276.467 122.261 275.847 122.459 274.964 122.477L263.624 122.665V122.656ZM282.931 102.005L293.895 101.817L288.098 85.3476L282.931 102.005Z" fill="white"/>
</svg>
